<?xml version="1.0" encoding="utf-8"?>
<!-- Generator: Adobe Illustrator 15.1.0, SVG Export Plug-In  -->
<!DOCTYPE svg PUBLIC "-//W3C//DTD SVG 1.1//EN" "http://www.w3.org/Graphics/SVG/1.1/DTD/svg11.dtd" [
	<!ENTITY ns_flows "http://ns.adobe.com/Flows/1.0/">
]>
<svg version="1.1"
	 xmlns="http://www.w3.org/2000/svg" xmlns:xlink="http://www.w3.org/1999/xlink" xmlns:a="http://ns.adobe.com/AdobeSVGViewerExtensions/3.0/"
	 x="0px" y="0px" width="330px" height="108px" viewBox="-8.567 -16.834 330 108"
	 overflow="visible" enable-background="new -8.567 -16.834 330 108" xml:space="preserve">
<defs>
</defs>
<path fill="#FFFFFF" stroke="#FFFFFF" d="M7.65,45.59c5.099,5.101,10.2,7.65,15.3,7.65c2.639,0,4.754-0.615,6.345-1.845
	c1.589-1.229,2.385-2.819,2.385-4.77c0-1.949-0.96-3.6-2.88-4.95c-1.921-1.35-4.245-2.534-6.975-3.555
	c-2.731-1.02-5.445-2.174-8.145-3.465c-2.7-1.29-5.011-3.134-6.93-5.535c-1.921-2.399-2.88-5.31-2.88-8.73
	c0-5.4,2.25-10.064,6.75-13.995c4.5-3.929,9.839-5.895,16.02-5.895c2.819,0,5.549,0.301,8.19,0.9C37.47,2,40.02,2.871,42.48,4.01
	l-6.12,13.14c-1.68-1.319-3.976-2.534-6.885-3.645c-2.911-1.109-5.46-1.665-7.65-1.665c-2.191,0-3.96,0.526-5.31,1.575
	c-1.35,1.05-2.025,2.445-2.025,4.185c0,1.741,0.959,3.285,2.88,4.635c1.919,1.35,4.244,2.536,6.975,3.555
	c2.73,1.021,5.459,2.146,8.19,3.375c2.729,1.23,5.054,3.046,6.975,5.445c1.92,2.4,2.88,5.31,2.88,8.73
	c0,5.641-2.25,10.575-6.75,14.805s-9.751,6.345-15.75,6.345c-4.5,0-8.491-1.08-11.97-3.24c-3.06-1.859-5.22-3.51-6.48-4.95
	l-0.81-0.99L7.65,45.59z"/>
<path fill="#FFFFFF" stroke="#FFFFFF" d="M50.265,60.125c-2.25-2.25-3.375-5.279-3.375-9.09c0-3.81,1.739-7.11,5.22-9.9
	c3.479-2.79,7.709-4.185,12.69-4.185h6.12v-1.53c0-2.939-0.601-4.95-1.8-6.03c-1.201-1.08-3.451-1.62-6.75-1.62
	c-1.381,0-3.015,0.286-4.905,0.855c-1.89,0.571-4.005,1.456-6.345,2.655l-2.61-7.11c2.579-1.8,5.715-3.42,9.405-4.86
	s6.734-2.16,9.135-2.16c9.419,0,14.13,4.561,14.13,13.68v17.64c0,3.361,1.049,7.11,3.15,11.25l-9.54,4.05
	c-1.5-2.88-2.61-5.459-3.33-7.74c-3.3,4.981-7.47,7.47-12.51,7.47C55.409,63.5,52.515,62.375,50.265,60.125z M62.729,54.32
	c2.399,0,5.13-1.229,8.19-3.69V44.6c-3.181-0.72-5.76-1.08-7.74-1.08c-3.78,0-5.67,1.681-5.67,5.04c0,1.741,0.48,3.136,1.44,4.185
	C59.909,53.795,61.168,54.32,62.729,54.32z"/>
<path fill="#FFFFFF" stroke="#FFFFFF" d="M117.18,32.45c-0.721-1.38-2.4-2.07-5.041-2.07c-2.641,0-5.641,1.051-9,3.15v6.57
	l0.99,21.15l-12.06,2.25l1.08-21.87c-0.24-8.04-0.9-15.239-1.98-21.6l10.89-2.34c0.419,3.48,0.72,6.871,0.9,10.17
	c0.9-1.199,1.919-2.385,3.06-3.555c1.139-1.17,2.939-2.489,5.4-3.96c2.46-1.47,5.054-2.205,7.784-2.205
	c2.73,0,5.025,1.066,6.886,3.195c1.857,2.13,2.789,5.026,2.789,8.685l-0.539,10.08l0.988,21.6l-12.148,2.25l1.08-23.22
	C118.26,36.59,117.898,33.831,117.18,32.45z"/>
<path fill="#FFFFFF" stroke="#FFFFFF" d="M139.544,60.125c-2.25-2.25-3.375-5.279-3.375-9.09c0-3.81,1.738-7.11,5.219-9.9
	c3.48-2.79,7.709-4.185,12.691-4.185h6.119v-1.53c0-2.939-0.6-4.95-1.801-6.03c-1.199-1.08-3.449-1.62-6.75-1.62
	c-1.381,0-3.014,0.286-4.904,0.855c-1.891,0.571-4.004,1.456-6.346,2.655l-2.609-7.11c2.58-1.8,5.715-3.42,9.404-4.86
	c3.691-1.44,6.736-2.16,9.137-2.16c9.418,0,14.129,4.561,14.129,13.68v17.64c0,3.361,1.049,7.11,3.15,11.25l-9.541,4.05
	c-1.5-2.88-2.609-5.459-3.328-7.74c-3.301,4.981-7.471,7.47-12.512,7.47C144.687,63.5,141.794,62.375,139.544,60.125z
	 M152.009,54.32c2.398,0,5.129-1.229,8.189-3.69V44.6c-3.182-0.72-5.76-1.08-7.74-1.08c-3.779,0-5.67,1.681-5.67,5.04
	c0,1.741,0.48,3.136,1.439,4.185C149.187,53.795,150.449,54.32,152.009,54.32z"/>
<path fill="#FFFFFF" d="M174.548,9.625l0.811-0.99c1.26-1.44,3.42-3.091,6.479-4.95c3.48-2.16,7.471-3.24,11.971-3.24
	c5.998,0,11.25,2.115,15.75,6.345s6.75,9.165,6.75,14.805c0,3.42-0.961,6.33-2.881,8.73c-1.92,2.399-4.244,4.214-6.975,5.445
	c-2.73,1.229-5.461,2.354-8.189,3.375c-2.73,1.02-5.057,2.205-6.975,3.555c-1.922,1.35-2.881,2.894-2.881,4.635
	c0,1.74,0.676,3.135,2.025,4.185c1.35,1.049,3.119,1.575,5.311,1.575c2.189,0,4.738-0.556,7.648-1.665
	c2.91-1.111,5.205-2.326,6.887-3.645l6.119,13.14c-2.461,1.139-5.01,2.009-7.65,2.61c-2.641,0.599-5.369,0.9-8.189,0.9
	c-6.18,0-11.52-1.966-16.02-5.895c-4.5-3.931-6.75-8.595-6.75-13.995c0-3.42,0.959-6.331,2.879-8.73c1.92-2.4,4.23-4.245,6.93-5.535
	c2.701-1.291,5.414-2.446,8.146-3.465c2.729-1.021,5.053-2.205,6.975-3.555c1.92-1.35,2.879-3.001,2.879-4.95
	c0-1.951-0.795-3.541-2.385-4.77c-1.59-1.23-3.705-1.845-6.344-1.845c-5.102,0-10.201,2.55-15.301,7.65L174.548,9.625z"/>
<path fill="#FFFFFF" stroke="#FFFFFF" d="M227.255,82.276l9.27-20.79l-6.66-18.18l-9.09-21.87l11.969-2.25l5.762,19.17l2.969,9.09
	h1.17l2.16-6.57l6.48-21.78l11.07,1.35l-15.93,41.85l-7.561,22.41L227.255,82.276z"/>
<path fill="#FFFFFF" stroke="#FFFFFF" d="M292.865,33.856c-0.721-1.38-2.4-2.07-5.041-2.07s-5.641,1.051-9,3.15v6.57l0.99,21.15
	l-12.061,2.25l1.08-21.87c-0.24-8.04-0.9-15.239-1.979-21.6l10.889-2.34c0.42,3.48,0.721,6.871,0.9,10.17
	c0.9-1.199,1.92-2.385,3.061-3.555c1.139-1.17,2.939-2.489,5.4-3.96c2.459-1.47,5.053-2.205,7.783-2.205s5.025,1.066,6.887,3.195
	c1.857,2.13,2.789,5.026,2.789,8.685l-0.539,10.08l0.988,21.6l-12.148,2.25l1.08-23.22
	C293.945,37.996,293.583,35.237,292.865,33.856z"/>
</svg>
